<mxfile host="app.diagrams.net" agent="Mozilla/5.0 (Windows NT 10.0; Win64; x64) AppleWebKit/537.36 (KHTML, like Gecko) Chrome/134.0.0.0 Safari/537.36" version="26.1.3">
  <diagram name="Page-1" id="X8XoOfWEoz-5LDdtdr7Y">
    <mxGraphModel grid="1" page="1" gridSize="10" guides="1" tooltips="1" connect="1" arrows="1" fold="1" pageScale="1" pageWidth="827" pageHeight="1169" math="0" shadow="0">
      <root>
        <mxCell id="0" />
        <mxCell id="1" parent="0" />
        <mxCell id="_OmRMZj0vbJAMYvzkF7s-1" value="" style="ellipse;html=1;shape=startState;fillColor=#000000;strokeColor=#ff0000;" vertex="1" parent="1">
          <mxGeometry x="160" y="40" width="30" height="30" as="geometry" />
        </mxCell>
        <mxCell id="_OmRMZj0vbJAMYvzkF7s-2" value="" style="edgeStyle=orthogonalEdgeStyle;html=1;verticalAlign=bottom;endArrow=open;endSize=8;strokeColor=#ff0000;rounded=0;" edge="1" parent="1" source="_OmRMZj0vbJAMYvzkF7s-1">
          <mxGeometry relative="1" as="geometry">
            <mxPoint x="175" y="130" as="targetPoint" />
          </mxGeometry>
        </mxCell>
        <mxCell id="_OmRMZj0vbJAMYvzkF7s-3" value="attempt riddle&amp;nbsp;" style="rounded=1;whiteSpace=wrap;html=1;arcSize=40;fontColor=#000000;fillColor=#ffffc0;strokeColor=#ff0000;" vertex="1" parent="1">
          <mxGeometry x="115" y="130" width="120" height="40" as="geometry" />
        </mxCell>
        <mxCell id="_OmRMZj0vbJAMYvzkF7s-4" value="" style="edgeStyle=orthogonalEdgeStyle;html=1;verticalAlign=bottom;endArrow=open;endSize=8;strokeColor=#ff0000;rounded=0;" edge="1" parent="1" source="_OmRMZj0vbJAMYvzkF7s-3">
          <mxGeometry relative="1" as="geometry">
            <mxPoint x="175" y="230" as="targetPoint" />
          </mxGeometry>
        </mxCell>
        <mxCell id="_OmRMZj0vbJAMYvzkF7s-5" value="solved?" style="rhombus;whiteSpace=wrap;html=1;fontColor=#000000;fillColor=#ffffc0;strokeColor=#ff0000;" vertex="1" parent="1">
          <mxGeometry x="135" y="230" width="80" height="40" as="geometry" />
        </mxCell>
        <mxCell id="_OmRMZj0vbJAMYvzkF7s-6" value="yes" style="edgeStyle=orthogonalEdgeStyle;html=1;align=left;verticalAlign=bottom;endArrow=open;endSize=8;strokeColor=#ff0000;rounded=0;" edge="1" parent="1" source="_OmRMZj0vbJAMYvzkF7s-5">
          <mxGeometry x="-0.8931" y="10" relative="1" as="geometry">
            <mxPoint x="280" y="250" as="targetPoint" />
            <mxPoint as="offset" />
          </mxGeometry>
        </mxCell>
        <mxCell id="_OmRMZj0vbJAMYvzkF7s-7" value="no" style="edgeStyle=orthogonalEdgeStyle;html=1;align=left;verticalAlign=top;endArrow=open;endSize=8;strokeColor=#ff0000;rounded=0;" edge="1" parent="1" source="_OmRMZj0vbJAMYvzkF7s-5">
          <mxGeometry x="-1" relative="1" as="geometry">
            <mxPoint x="175" y="310" as="targetPoint" />
          </mxGeometry>
        </mxCell>
        <mxCell id="_OmRMZj0vbJAMYvzkF7s-8" value="success message is shown" style="rounded=1;whiteSpace=wrap;html=1;arcSize=40;fontColor=#000000;fillColor=#ffffc0;strokeColor=#ff0000;" vertex="1" parent="1">
          <mxGeometry x="414" y="230" width="120" height="40" as="geometry" />
        </mxCell>
        <mxCell id="_OmRMZj0vbJAMYvzkF7s-9" value="" style="edgeStyle=orthogonalEdgeStyle;html=1;verticalAlign=bottom;endArrow=open;endSize=8;strokeColor=#ff0000;rounded=0;exitX=1;exitY=0.5;exitDx=0;exitDy=0;entryX=0;entryY=0.5;entryDx=0;entryDy=0;" edge="1" parent="1" source="_OmRMZj0vbJAMYvzkF7s-8" target="_OmRMZj0vbJAMYvzkF7s-10">
          <mxGeometry relative="1" as="geometry">
            <mxPoint x="470" y="250" as="targetPoint" />
          </mxGeometry>
        </mxCell>
        <mxCell id="_OmRMZj0vbJAMYvzkF7s-13" value="" style="edgeStyle=orthogonalEdgeStyle;rounded=0;orthogonalLoop=1;jettySize=auto;html=1;" edge="1" parent="1" source="_OmRMZj0vbJAMYvzkF7s-10" target="_OmRMZj0vbJAMYvzkF7s-12">
          <mxGeometry relative="1" as="geometry" />
        </mxCell>
        <mxCell id="_OmRMZj0vbJAMYvzkF7s-10" value="next story panel" style="rounded=1;whiteSpace=wrap;html=1;arcSize=40;fontColor=#000000;fillColor=#ffffc0;strokeColor=#ff0000;" vertex="1" parent="1">
          <mxGeometry x="600" y="230" width="120" height="40" as="geometry" />
        </mxCell>
        <mxCell id="_OmRMZj0vbJAMYvzkF7s-12" value="" style="ellipse;html=1;shape=endState;fillColor=#000000;strokeColor=#ff0000;" vertex="1" parent="1">
          <mxGeometry x="770" y="235" width="30" height="30" as="geometry" />
        </mxCell>
        <mxCell id="_OmRMZj0vbJAMYvzkF7s-23" value="" style="edgeStyle=orthogonalEdgeStyle;rounded=0;orthogonalLoop=1;jettySize=auto;html=1;" edge="1" parent="1" source="_OmRMZj0vbJAMYvzkF7s-14" target="_OmRMZj0vbJAMYvzkF7s-18">
          <mxGeometry relative="1" as="geometry" />
        </mxCell>
        <mxCell id="_OmRMZj0vbJAMYvzkF7s-26" value="yes" style="edgeLabel;html=1;align=center;verticalAlign=middle;resizable=0;points=[];" connectable="0" vertex="1" parent="_OmRMZj0vbJAMYvzkF7s-23">
          <mxGeometry x="-0.6018" y="4" relative="1" as="geometry">
            <mxPoint x="11" y="8" as="offset" />
          </mxGeometry>
        </mxCell>
        <mxCell id="_OmRMZj0vbJAMYvzkF7s-14" value="hint?" style="rhombus;whiteSpace=wrap;html=1;fontColor=#000000;fillColor=#ffffc0;strokeColor=#ff0000;" vertex="1" parent="1">
          <mxGeometry x="135" y="410" width="80" height="40" as="geometry" />
        </mxCell>
        <mxCell id="_OmRMZj0vbJAMYvzkF7s-15" value="no" style="edgeStyle=orthogonalEdgeStyle;html=1;align=left;verticalAlign=bottom;endArrow=open;endSize=8;strokeColor=#ff0000;rounded=0;exitX=0;exitY=0.5;exitDx=0;exitDy=0;entryX=0;entryY=0.75;entryDx=0;entryDy=0;" edge="1" parent="1" source="_OmRMZj0vbJAMYvzkF7s-14" target="_OmRMZj0vbJAMYvzkF7s-3">
          <mxGeometry x="-0.9063" y="-10" relative="1" as="geometry">
            <mxPoint x="315" y="350" as="targetPoint" />
            <mxPoint as="offset" />
            <Array as="points">
              <mxPoint x="90" y="430" />
              <mxPoint x="90" y="160" />
            </Array>
          </mxGeometry>
        </mxCell>
        <mxCell id="_OmRMZj0vbJAMYvzkF7s-18" value="hint message is shown" style="rounded=1;whiteSpace=wrap;html=1;arcSize=40;fontColor=#000000;fillColor=#ffffc0;strokeColor=#ff0000;" vertex="1" parent="1">
          <mxGeometry x="115" y="510" width="120" height="40" as="geometry" />
        </mxCell>
        <mxCell id="_OmRMZj0vbJAMYvzkF7s-19" value="" style="edgeStyle=orthogonalEdgeStyle;html=1;verticalAlign=bottom;endArrow=open;endSize=8;strokeColor=#ff0000;rounded=0;exitX=0;exitY=0.5;exitDx=0;exitDy=0;entryX=0;entryY=0.5;entryDx=0;entryDy=0;" edge="1" parent="1" source="_OmRMZj0vbJAMYvzkF7s-18" target="_OmRMZj0vbJAMYvzkF7s-3">
          <mxGeometry relative="1" as="geometry">
            <mxPoint x="180" y="530" as="targetPoint" />
            <Array as="points">
              <mxPoint x="90" y="530" />
              <mxPoint x="90" y="150" />
            </Array>
          </mxGeometry>
        </mxCell>
        <mxCell id="_OmRMZj0vbJAMYvzkF7s-22" style="edgeStyle=orthogonalEdgeStyle;rounded=0;orthogonalLoop=1;jettySize=auto;html=1;exitX=0.5;exitY=1;exitDx=0;exitDy=0;entryX=0.5;entryY=0;entryDx=0;entryDy=0;" edge="1" parent="1" source="_OmRMZj0vbJAMYvzkF7s-20" target="_OmRMZj0vbJAMYvzkF7s-14">
          <mxGeometry relative="1" as="geometry" />
        </mxCell>
        <mxCell id="_OmRMZj0vbJAMYvzkF7s-20" value="fail message is shown" style="rounded=1;whiteSpace=wrap;html=1;arcSize=40;fontColor=#000000;fillColor=#ffffc0;strokeColor=#ff0000;" vertex="1" parent="1">
          <mxGeometry x="115" y="310" width="120" height="40" as="geometry" />
        </mxCell>
        <mxCell id="_OmRMZj0vbJAMYvzkF7s-27" value="final riddle?" style="rhombus;whiteSpace=wrap;html=1;fontColor=#000000;fillColor=#ffffc0;strokeColor=#ff0000;" vertex="1" parent="1">
          <mxGeometry x="280" y="230" width="80" height="40" as="geometry" />
        </mxCell>
        <mxCell id="_OmRMZj0vbJAMYvzkF7s-28" value="no" style="edgeStyle=orthogonalEdgeStyle;html=1;align=left;verticalAlign=bottom;endArrow=open;endSize=8;strokeColor=#ff0000;rounded=0;" edge="1" parent="1" source="_OmRMZj0vbJAMYvzkF7s-27">
          <mxGeometry x="-1" relative="1" as="geometry">
            <mxPoint x="410" y="250" as="targetPoint" />
          </mxGeometry>
        </mxCell>
        <mxCell id="_OmRMZj0vbJAMYvzkF7s-29" value="yes" style="edgeStyle=orthogonalEdgeStyle;html=1;align=left;verticalAlign=top;endArrow=open;endSize=8;strokeColor=#ff0000;rounded=0;entryX=0.5;entryY=1;entryDx=0;entryDy=0;" edge="1" parent="1" source="_OmRMZj0vbJAMYvzkF7s-27" target="_OmRMZj0vbJAMYvzkF7s-12">
          <mxGeometry x="-1" relative="1" as="geometry">
            <mxPoint x="350" y="370" as="targetPoint" />
            <Array as="points">
              <mxPoint x="320" y="300" />
              <mxPoint x="785" y="300" />
            </Array>
          </mxGeometry>
        </mxCell>
      </root>
    </mxGraphModel>
  </diagram>
</mxfile>
